<svg width="24" height="24" viewBox="0 0 24 24" fill="none" xmlns="http://www.w3.org/2000/svg">
<path d="M12.001 2V21.6299" stroke="#515151" stroke-width="2" stroke-linecap="round" stroke-linejoin="round"/>
<path d="M14.5291 4.10303C13.7659 4.56308 12.8913 4.80552 12 4.80409C11.1088 4.80552 10.2342 4.56308 9.47095 4.10303" stroke="#515151" stroke-width="2" stroke-linecap="round" stroke-linejoin="round"/>
<path d="M9.47095 19.5268C10.2348 19.068 11.109 18.8257 12 18.8257C12.8911 18.8257 13.7653 19.068 14.5291 19.5268" stroke="#515151" stroke-width="2" stroke-linecap="round" stroke-linejoin="round"/>
<path d="M20.5 6.90674L3.5 16.7217" stroke="#515151" stroke-width="2" stroke-linecap="round" stroke-linejoin="round"/>
<path d="M19.9425 10.1492C19.1631 9.71703 18.5161 9.0809 18.0706 8.30903C17.6252 7.53716 17.3981 6.65863 17.4138 5.76758" stroke="#515151" stroke-width="2" stroke-linecap="round" stroke-linejoin="round"/>
<path d="M4.05688 13.481C4.83624 13.9132 5.48332 14.5493 5.92876 15.3212C6.37421 16.093 6.60125 16.9716 6.58555 17.8626" stroke="#515151" stroke-width="2" stroke-linecap="round" stroke-linejoin="round"/>
<path d="M3.5 6.90674L20.5 16.7217" stroke="#515151" stroke-width="2" stroke-linecap="round" stroke-linejoin="round"/>
<path d="M4.05688 10.1492C4.83624 9.71703 5.48332 9.0809 5.92876 8.30903C6.37421 7.53716 6.60125 6.65863 6.58555 5.76758" stroke="#515151" stroke-width="2" stroke-linecap="round" stroke-linejoin="round"/>
<path d="M19.9425 13.481C19.1631 13.9132 18.5161 14.5493 18.0706 15.3212C17.6252 16.093 17.3981 16.9716 17.4138 17.8626" stroke="#515151" stroke-width="2" stroke-linecap="round" stroke-linejoin="round"/>
</svg>
