<svg width="24" height="24" viewBox="0 0 24 24" fill="none" xmlns="http://www.w3.org/2000/svg">
<path d="M7 13.1818C9.20914 13.1818 11 11.3503 11 9.09091C11 6.83156 9.20914 5 7 5C4.79086 5 3 6.83156 3 9.09091C3 11.3503 4.79086 13.1818 7 13.1818ZM7 13.1818V16.4115M3.66667 16.4115H7M7 16.4115H10.3333M7 16.4115V20" stroke="#515151" stroke-width="2" stroke-linecap="round" stroke-linejoin="round"/>
<path d="M17 11.8182C14.7909 11.8182 13 13.6497 13 15.9091C13 18.1684 14.7909 20 17 20C19.2091 20 21 18.1684 21 15.9091C21 13.6497 19.2091 11.8182 17 11.8182ZM17 11.8182V5M17 5L14.7148 7.38076M17 5L19.304 7.21145" stroke="#515151" stroke-width="2" stroke-linecap="round" stroke-linejoin="round"/>
</svg>
