<svg width="24" height="24" viewBox="0 0 24 24" fill="none" xmlns="http://www.w3.org/2000/svg">
<path d="M19.2 12.8182H19.6879C20.3481 12.8182 20.8272 13.4467 20.6521 14.0833L19.4021 18.6288C19.2827 19.0628 18.888 19.3636 18.4379 19.3636H17.4M19.2 12.8182H4.31212C3.65187 12.8182 3.17285 13.4467 3.34792 14.0833L4.59792 18.6288C4.71728 19.0628 5.11196 19.3636 5.56212 19.3636H6.6M19.2 12.8182V4C19.2 3.44772 18.7523 3 18.2 3H14.8C14.2477 3 13.8 3.44772 13.8 4V5.72727M13.8 5.72727H16.5M13.8 5.72727H11.1M6.6 19.3636L5.7 21M6.6 19.3636H17.4M17.4 19.3636L18.3 21" stroke="#515151" stroke-width="2" stroke-linecap="round"/>
</svg>
