<svg width="24" height="24" viewBox="0 0 24 24" fill="none" xmlns="http://www.w3.org/2000/svg">
<circle cx="7.58008" cy="16.749" r="5.5" stroke="#515151" stroke-width="2"/>
<line x1="15.7016" y1="16.2846" x2="17.8229" y2="14.1633" stroke="#515151" stroke-width="2"/>
<path fill-rule="evenodd" clip-rule="evenodd" d="M3.68631 2.7668L20.6324 18.5542C20.998 18.8947 21.0082 19.4706 20.6549 19.8239C20.3016 20.1771 19.7258 20.1669 19.3852 19.8014L14.9007 14.9877C15.0411 15.5598 15.1156 16.1579 15.1156 16.7733C15.1156 17.2044 15.079 17.6269 15.0089 18.0379L17.9219 21.1647C19.0343 22.3587 20.9152 22.392 22.0691 21.2381C23.2231 20.0841 23.1898 18.2032 21.9957 17.0908L5.04961 1.30344C4.2369 0.546303 2.97059 0.56871 2.18518 1.35412C1.39976 2.13953 1.37736 3.40585 2.13449 4.21855L6.9093 9.34382C7.1529 9.31984 7.39992 9.30756 7.64982 9.30756C8.44996 9.30756 9.2207 9.43343 9.94331 9.66646L3.59785 2.85526C3.57488 2.8306 3.57555 2.79217 3.59939 2.76833C3.62322 2.7445 3.66165 2.74382 3.68631 2.7668Z" fill="#515151"/>
<path d="M7.83008 18.999V14.499L6.33008 15.499" stroke="#515151" stroke-width="1.5" stroke-linecap="round" stroke-linejoin="round"/>
</svg>
