<svg width="24" height="24" viewBox="0 0 24 24" fill="none" xmlns="http://www.w3.org/2000/svg">
<path d="M4.40015 17.75V20.6" stroke="#515151" stroke-width="2" stroke-linecap="round" stroke-linejoin="round"/>
<path d="M5.3501 10.15V5.4C5.3501 4.35066 6.20076 3.5 7.2501 3.5H16.7501C17.7995 3.5 18.6501 4.35066 18.6501 5.4V10.15" stroke="#515151" stroke-width="2" stroke-linecap="round" stroke-linejoin="round"/>
<path d="M19.125 10.1499C17.8133 10.1499 16.75 11.2132 16.75 12.5249V13.9499H7.25V12.5249C7.25 11.2132 6.18667 10.1499 4.875 10.1499C3.56333 10.1499 2.5 11.2132 2.5 12.5249C2.5 13.6739 3.31594 14.6324 4.4 14.8524V17.7499H19.6V14.8524C20.684 14.6324 21.5 13.6739 21.5 12.5249C21.5 11.2132 20.4367 10.1499 19.125 10.1499Z" stroke="#515151" stroke-width="2" stroke-linecap="round" stroke-linejoin="round"/>
<path d="M19.6003 17.75V20.6" stroke="#515151" stroke-width="2" stroke-linecap="round" stroke-linejoin="round"/>
</svg>
