<svg width="24" height="24" viewBox="0 0 24 24" fill="none" xmlns="http://www.w3.org/2000/svg">
<path d="M2.5 21C3.6819 21 4.85222 20.7672 5.94415 20.3149C7.03608 19.8626 8.02823 19.1997 8.86396 18.364C9.69969 17.5282 10.3626 16.5361 10.8149 15.4442C11.2672 14.3522 11.5 13.1819 11.5 12C11.5 10.8181 11.2672 9.64778 10.8149 8.55585C10.3626 7.46392 9.69969 6.47177 8.86396 5.63604C8.02823 4.80031 7.03608 4.13738 5.94415 3.68508C4.85222 3.23279 3.6819 3 2.5 3" stroke="#515151" stroke-width="2"/>
<path d="M2.5 17C3.15661 17 3.80679 16.8707 4.41342 16.6194C5.02005 16.3681 5.57124 15.9998 6.03553 15.5355C6.49983 15.0712 6.86812 14.52 7.1194 13.9134C7.37067 13.3068 7.5 12.6566 7.5 12C7.5 11.3434 7.37067 10.6932 7.1194 10.0866C6.86812 9.47995 6.49983 8.92876 6.03553 8.46447C5.57124 8.00017 5.02004 7.63188 4.41342 7.3806C3.80679 7.12933 3.15661 7 2.5 7" stroke="#515151" stroke-width="1.5"/>
<path d="M5.10841 12.6989C5.20018 12.3564 5.22359 11.9992 5.17731 11.6477C5.13103 11.2961 5.01596 10.9572 4.83868 10.6501C4.66139 10.343 4.42536 10.0739 4.14406 9.85804C3.86276 9.64219 3.54171 9.48386 3.19922 9.39209" stroke="#515151" stroke-width="1.5" stroke-linecap="round"/>
<path d="M17.5 2.5V21.5" stroke="#515151" stroke-width="2" stroke-linecap="round" stroke-linejoin="round"/>
<path d="M14.5 3V7.33333C14.5 9.5 17.5 9.5 17.5 9.5C17.5 9.5 20.5 9.5 20.5 7.33333V3" stroke="#515151" stroke-width="2" stroke-linecap="round" stroke-linejoin="round"/>
</svg>
