<svg width="24" height="24" viewBox="0 0 24 24" fill="none" xmlns="http://www.w3.org/2000/svg">
<rect x="10.5" y="15" width="11" height="3" rx="1.5" stroke="#515151" stroke-width="2"/>
<path fill-rule="evenodd" clip-rule="evenodd" d="M5.5 2C3.84315 2 2.5 3.34315 2.5 5V19C2.5 20.6569 3.84315 22 5.5 22H13.5C15.1569 22 16.5 20.6569 16.5 19V17H14.5V19C14.5 19.5523 14.0523 20 13.5 20H5.5C4.94772 20 4.5 19.5523 4.5 19V5C4.5 4.44772 4.94772 4 5.5 4H13.5C14.0523 4 14.5 4.44772 14.5 5V14H16.5V5C16.5 3.34315 15.1569 2 13.5 2H5.5Z" fill="#515151"/>
<circle cx="6.5" cy="6" r="1" fill="#515151"/>
<circle cx="9.5" cy="6" r="1" fill="#515151"/>
<circle cx="12.5" cy="6" r="1" fill="#515151"/>
<circle cx="6.5" cy="9" r="1" fill="#515151"/>
<circle cx="9.5" cy="9" r="1" fill="#515151"/>
<circle cx="12.5" cy="9" r="1" fill="#515151"/>
<circle cx="6.5" cy="12" r="1" fill="#515151"/>
<circle cx="9.5" cy="12" r="1" fill="#515151"/>
<circle cx="12.5" cy="12" r="1" fill="#515151"/>
</svg>
