<svg width="24" height="24" viewBox="0 0 24 24" fill="none" xmlns="http://www.w3.org/2000/svg">
<rect x="3" y="16" width="18" height="3" rx="1" stroke="#515151" stroke-width="2" stroke-linejoin="round"/>
<path d="M4 15C4 15.5523 4.44772 16 5 16H8C8.55228 16 9 15.5523 9 15V15C9 13.8954 8.10457 13 7 13H6C4.89543 13 4 13.8954 4 15V15Z" stroke="#515151" stroke-width="2" stroke-linejoin="round"/>
<path d="M5 22V20C5 19.4477 5.44772 19 6 19H18C18.5523 19 19 19.4477 19 20V22" stroke="#515151" stroke-width="2" stroke-linejoin="round"/>
<path d="M15 9H17H19L20 13H14L15 9Z" stroke="#515151" stroke-width="1.5" stroke-linejoin="round"/>
<path fill-rule="evenodd" clip-rule="evenodd" d="M8 8C8 5.79086 9.79086 4 12 4C14.2091 4 16 5.79086 16 8C16 8.3453 15.9562 8.68038 15.874 9H17H17.917C17.9716 8.67479 18 8.34071 18 8C18 4.68629 15.3137 2 12 2C8.68629 2 6 4.68629 6 8C6 11.3137 8.68629 14 12 14C13.2267 14 14.3675 13.6318 15.3178 13H14L14.4618 11.153C13.783 11.6837 12.9284 12 12 12C9.79086 12 8 10.2091 8 8Z" fill="#515151"/>
<line x1="17" y1="13" x2="17" y2="16" stroke="#515151" stroke-width="2"/>
</svg>
