<svg width="24" height="24" viewBox="0 0 24 24" fill="none" xmlns="http://www.w3.org/2000/svg">
<path d="M3.5 3L18.5 3C19.6046 3 20.5 3.89543 20.5 5V5C20.5 6.10457 19.6046 7 18.5 7L3.5 7V3Z" stroke="#515151" stroke-width="2" stroke-linejoin="round"/>
<path fill-rule="evenodd" clip-rule="evenodd" d="M7.73611 3C7.18679 2.38625 6.3885 2 5.5 2C3.84315 2 2.5 3.34315 2.5 5V21C2.5 21.5523 2.94772 22 3.5 22H7.5C8.05228 22 8.5 21.5523 8.5 21L8.5 7H6.5L6.5 20H4.5L4.5 6.73244C3.9022 6.38663 3.5 5.74028 3.5 5C3.5 3.89543 4.39543 3 5.5 3H7.73611Z" fill="#515151"/>
<path d="M18.9611 12.4689C19.1457 12.2832 19.3734 12.1459 19.6238 12.0694C19.8743 11.9929 20.1397 11.9794 20.3966 12.0302C20.6535 12.081 20.8939 12.1944 21.0964 12.3605C21.2989 12.5266 21.4572 12.7401 21.5572 12.9821C21.6573 13.2241 21.696 13.4871 21.67 13.7477C21.6439 14.0082 21.5539 14.2583 21.4079 14.4757C21.2618 14.6931 21.0644 14.8711 20.833 14.9937C20.6017 15.1164 20.3436 15.1801 20.0817 15.179H12.929M13.3944 20.7257C13.579 20.9114 13.8067 21.0487 14.0571 21.1252C14.3076 21.2017 14.573 21.2152 14.8299 21.1644C15.0868 21.1136 15.3272 21.0002 15.5297 20.8341C15.7322 20.668 15.8905 20.4545 15.9905 20.2125C16.0906 19.9705 16.1293 19.7075 16.1033 19.4469C16.0772 19.1864 15.9872 18.9363 15.8412 18.7189C15.6951 18.5015 15.4977 18.3235 15.2663 18.2008C15.035 18.0782 14.7769 18.0145 14.515 18.0156H12.5" stroke="#515151" stroke-width="2" stroke-linecap="round" stroke-linejoin="round"/>
<path d="M19.7834 20.7257C19.968 20.9114 20.1956 21.0487 20.4461 21.1252C20.6965 21.2017 20.962 21.2152 21.2189 21.1644C21.4758 21.1136 21.7162 21.0002 21.9186 20.8341C22.1211 20.668 22.2794 20.4545 22.3795 20.2125C22.4796 19.9705 22.5183 19.7075 22.4922 19.4469C22.4662 19.1863 22.3761 18.9362 22.2301 18.7189C22.0841 18.5015 21.8866 18.3235 21.6553 18.2008C21.4239 18.0782 21.1658 18.0145 20.904 18.0156H17.8162" stroke="#515151" stroke-width="2" stroke-linecap="round" stroke-linejoin="round"/>
<line x1="11" y1="8" x2="11" y2="10" stroke="#515151" stroke-width="2" stroke-linecap="round"/>
<line x1="14" y1="8" x2="14" y2="10" stroke="#515151" stroke-width="2" stroke-linecap="round"/>
<line x1="17" y1="8" x2="17" y2="10" stroke="#515151" stroke-width="2" stroke-linecap="round"/>
</svg>
