<svg width="24" height="24" viewBox="0 0 24 24" fill="none" xmlns="http://www.w3.org/2000/svg">
<path d="M7.39024 6.22489H20.561M3.43902 12.448H13.8049M13.8049 12.448C13.8049 13.6755 14.7877 14.6705 16 14.6705C17.2123 14.6705 18.1951 13.6755 18.1951 12.448M13.8049 12.448C13.8049 11.2205 14.7877 10.2254 16 10.2254C17.2123 10.2254 18.1951 11.2205 18.1951 12.448M18.1951 12.448H20.561M7.39024 18.5023H20.561M7.39024 6.22255C7.39024 7.45003 6.40745 8.4451 5.19512 8.4451C3.98279 8.4451 3 7.45003 3 6.22255C3 4.99507 3.98279 4 5.19512 4C6.40745 4 7.39024 4.99507 7.39024 6.22255ZM7.39025 18.5C7.39025 19.7275 6.40746 20.7225 5.19512 20.7225C3.98279 20.7225 3 19.7275 3 18.5C3 17.2725 3.98279 16.2775 5.19512 16.2775C6.40746 16.2775 7.39025 17.2725 7.39025 18.5Z" stroke="#515151" stroke-width="2" stroke-linecap="round" stroke-linejoin="round"/>
</svg>
