<svg width="24" height="24" viewBox="0 0 24 24" fill="none" xmlns="http://www.w3.org/2000/svg">
<path d="M11 21C8.61305 21 6.32387 20.0518 4.63604 18.364C2.94821 16.6761 2 14.3869 2 12M11 21C9.343 21 8 16.97 8 12C8 7.03 9.343 3 11 3M11 21C12.214 21 13.4028 20.7547 14.5 20.2916M11 3C13.3869 3 15.6761 3.94821 17.364 5.63604C18.8144 7.08647 19.7186 8.98098 19.9443 11M11 3C8.61305 3 6.32387 3.94821 4.63604 5.63604C2.94821 7.32387 2 9.61305 2 12M11 3C12.5443 3 13.8159 6.50049 13.9817 11M2 12H11" stroke="#8B8B8B" stroke-width="2" stroke-linecap="round" stroke-linejoin="round"/>
<path d="M20 19.3529H19V21C19 21.4097 18.7501 21.7779 18.3695 21.9293C17.9888 22.0806 17.5543 21.9845 17.273 21.6866L15.069 19.3529H13C12.4505 19.3529 11.936 19.1213 11.5659 18.7294C11.1976 18.3395 11 17.8223 11 17.2941V13.0588C11 12.5306 11.1976 12.0134 11.5659 11.6235C11.936 11.2316 12.4505 11 13 11H20C20.5495 11 21.064 11.2316 21.4341 11.6235C21.8024 12.0134 22 12.5306 22 13.0588V17.2941C22 17.8223 21.8024 18.3395 21.4341 18.7294C21.064 19.1213 20.5495 19.3529 20 19.3529Z" stroke="#8B8B8B" stroke-width="2" stroke-linecap="round" stroke-linejoin="round"/>
</svg>
