<svg width="24" height="24" viewBox="0 0 24 24" fill="none" xmlns="http://www.w3.org/2000/svg">
<path d="M13.8281 10.1722C13.078 9.42228 12.0607 9.00102 11.0001 9.00102C9.93942 9.00102 8.92219 9.42228 8.17208 10.1722L4.17208 14.1722C3.79004 14.5412 3.48531 14.9825 3.27567 15.4705C3.06604 15.9586 2.95569 16.4834 2.95108 17.0146C2.94646 17.5457 3.04767 18.0724 3.24879 18.564C3.44992 19.0556 3.74693 19.5022 4.1225 19.8777C4.49807 20.2533 4.94468 20.5503 5.43626 20.7515C5.92785 20.9526 6.45457 21.0538 6.98569 21.0492C7.5168 21.0446 8.04168 20.9342 8.5297 20.7246C9.01771 20.5149 9.45909 20.2102 9.82808 19.8282L10.9301 18.7272M10.1721 13.8282C10.9222 14.578 11.9394 14.9993 13.0001 14.9993C14.0607 14.9993 15.078 14.578 15.8281 13.8282L19.8281 9.82816C20.5567 9.07376 20.9599 8.06335 20.9508 7.01456C20.9417 5.96577 20.521 4.96252 19.7794 4.22089C19.0377 3.47926 18.0345 3.05858 16.9857 3.04947C15.9369 3.04035 14.9265 3.44353 14.1721 4.17216L13.0721 5.27216" stroke="#515151" stroke-width="2" stroke-linecap="round" stroke-linejoin="round"/>
</svg>
