<svg width="24" height="24" viewBox="0 0 24 24" fill="none" xmlns="http://www.w3.org/2000/svg">
<path d="M6.5 13.5V11.75C6.5 10.5074 5.49264 9.5 4.25 9.5C3.00736 9.5 2 10.5074 2 11.75V15.5C2 16.6046 2.89543 17.5 4 17.5M6.5 13.5H17.5M6.5 13.5H12M17.5 13.5V11.75C17.5 10.5074 18.5074 9.5 19.75 9.5C20.9926 9.5 22 10.5074 22 11.75V15.5C22 15.5043 22 15.5086 22 15.5129C21.993 16.6116 21.1003 17.5 20 17.5M17.5 13.5H12M20 17.5V20.5M20 17.5H4M4 17.5L4 20.5M12 5.5V13.5M12 5.5C12 4.39543 11.1046 3.5 10 3.5H7C5.89543 3.5 5 4.39543 5 5.5V9.5M12 5.5C12 4.39543 12.8954 3.5 14 3.5H17C18.1046 3.5 19 4.39543 19 5.5V10" stroke="#515151" stroke-width="2"/>
</svg>
