<svg width="24" height="24" viewBox="0 0 24 24" fill="none" xmlns="http://www.w3.org/2000/svg">
<rect x="2.5" y="2.5" width="19" height="19" rx="2" stroke="#515151" stroke-width="2"/>
<circle cx="5.66667" cy="5.66667" r="0.791667" fill="#515151"/>
<circle cx="11.9999" cy="11.9999" r="5.27778" stroke="#515151" stroke-width="2"/>
<path d="M15 12C15 11.606 14.9224 11.2159 14.7716 10.8519C14.6209 10.488 14.3999 10.1573 14.1213 9.87868C13.8427 9.6001 13.512 9.37913 13.1481 9.22836C12.7841 9.0776 12.394 9 12 9" stroke="#515151" stroke-width="1.5" stroke-linecap="round"/>
<path d="M9 12C9 12.394 9.0776 12.7841 9.22836 13.1481C9.37913 13.512 9.6001 13.8427 9.87868 14.1213C10.1573 14.3999 10.488 14.6209 10.8519 14.7716C11.2159 14.9224 11.606 15 12 15" stroke="#515151" stroke-width="1.5" stroke-linecap="round"/>
</svg>
