<svg width="24" height="24" viewBox="0 0 24 24" fill="none" xmlns="http://www.w3.org/2000/svg">
<rect x="2" y="4" width="20" height="16" rx="2" stroke="#515151" stroke-width="2"/>
<rect x="5.15796" y="7" width="10.5263" height="9" stroke="#515151" stroke-width="2" stroke-linejoin="round"/>
<path d="M19.3948 8C19.3948 8.25229 19.1719 8.5 18.8422 8.5C18.5125 8.5 18.2896 8.25229 18.2896 8C18.2896 7.74771 18.5125 7.5 18.8422 7.5C19.1719 7.5 19.3948 7.74771 19.3948 8Z" stroke="#515151"/>
<path d="M19.3948 12C19.3948 12.2523 19.1719 12.5 18.8422 12.5C18.5125 12.5 18.2896 12.2523 18.2896 12C18.2896 11.7477 18.5125 11.5 18.8422 11.5C19.1719 11.5 19.3948 11.7477 19.3948 12Z" stroke="#515151"/>
</svg>
