<svg xmlns="http://www.w3.org/2000/svg" width="24" height="24" fill="none" xmlns:v="https://vecta.io/nano"><g clip-path="url(#A)"><path stroke="#515151" stroke-width="2" stroke-linecap="round" d="M1.45 22.586L22.663 1.373"/><path fill-rule="evenodd" d="M4.83 22H15h6a1 1 0 0 0 1-1v-1h0a7 7 0 0 0-3.5-6.063 7 7 0 0 0-3.5-.938c-.434 0-.866.04-1.289.12L11.28 15.55c.46.235.884.543 1.256.915A5 5 0 0 1 14 20H6.83l-2 2zm10.003-10.003a5 5 0 0 0 4.281-2.155A5 5 0 0 0 20 7l-.003-.167-5.164 5.164zm3.265-8.922a5 5 0 0 0-4.302-.928A5 5 0 0 0 12 3a5 5 0 0 0-6.535.465 5 5 0 0 0 0 7.071A5 5 0 0 0 9 12l.176-.003 4.821-4.821L14 7a5 5 0 0 0-.667-2.495 3 3 0 0 1 2.727-.312 3 3 0 0 1 .606.312l1.431-1.431zm-9.98 9.981l-6.061 6.061a7 7 0 0 1 6.061-6.061zM6.878 4.879a3 3 0 0 1 4.243 0 3 3 0 0 1 0 4.243 3 3 0 0 1-4.243 0 3 3 0 0 1 0-4.243zM16 20a7 7 0 0 0-2.001-4.9c.328-.067.663-.101 1.001-.101a5 5 0 0 1 4.33 2.5A5 5 0 0 1 20 20h0-4z" fill="#515151"/></g><defs><clipPath id="A"><path fill="#fff" d="M0 0h24v24H0z"/></clipPath></defs></svg>