<svg width="24" height="24" viewBox="0 0 24 24" fill="none" xmlns="http://www.w3.org/2000/svg">
<circle cx="6" cy="5.5" r="3" stroke="#515151" stroke-width="2"/>
<mask id="path-2-inside-1_20093_142425" fill="white">
<path fill-rule="evenodd" clip-rule="evenodd" d="M4.35254 10.7295C4.32808 13.1923 5.25542 15.6628 7.13455 17.5419C9.01369 19.4211 11.4842 20.3484 13.947 20.324L4.35254 10.7295Z"/>
</mask>
<path d="M4.35254 10.7295L5.76675 9.31528L2.39992 5.94845L2.35264 10.7096L4.35254 10.7295ZM13.947 20.324L13.9669 22.3239L18.728 22.2766L15.3612 18.9097L13.947 20.324ZM8.54877 16.1277C7.06494 14.6439 6.3331 12.697 6.35244 10.7494L2.35264 10.7096C2.32306 13.6876 3.4459 16.6817 5.72034 18.9562L8.54877 16.1277ZM13.9271 18.324C11.9795 18.3434 10.0326 17.6115 8.54877 16.1277L5.72034 18.9562C7.99478 21.2306 10.9889 22.3534 13.9669 22.3239L13.9271 18.324ZM15.3612 18.9097L5.76675 9.31528L2.93833 12.1437L12.5328 21.7382L15.3612 18.9097Z" fill="#515151" mask="url(#path-2-inside-1_20093_142425)"/>
<path d="M6.90957 15.4086L9.26659 17.7656L5.59715 22.2884C4.84958 23.2098 3.46882 23.2816 2.62981 22.4425L2.23264 22.0454C1.39363 21.2064 1.46535 19.8256 2.38677 19.078L6.90957 15.4086Z" fill="#515151"/>
<path fill-rule="evenodd" clip-rule="evenodd" d="M7.91445 10.1206C7.32471 10.3652 6.67801 10.5003 5.99977 10.5003C5.80851 10.5003 5.61976 10.4895 5.43408 10.4686L15.1947 20.2292C17.1608 19.9499 19.0561 19.054 20.5684 17.5417C24.2783 13.8318 24.2783 7.81668 20.5684 4.1067C17.6522 1.19055 13.3119 0.566579 9.78625 2.23479C10.2226 2.74026 10.5594 3.33403 10.7663 3.98567C13.5268 2.7411 16.8861 3.25285 19.1541 5.52092C22.0831 8.44985 22.0831 13.1986 19.1541 16.1275C18.2012 17.0805 17.059 17.7221 15.8488 18.0549L7.91445 10.1206Z" fill="#515151"/>
</svg>
