<svg xmlns="http://www.w3.org/2000/svg" width="24" height="24" fill="none" stroke="#515151" stroke-linecap="round" stroke-linejoin="round" xmlns:v="https://vecta.io/nano"><path d="M12 4.354a4 4 0 0 1 4.414-1.096A4 4 0 0 1 19 7a4 4 0 0 1-2.586 3.742A4 4 0 0 1 12 9.646M15 21H3v-1a6 6 0 0 1 6-6 6 6 0 0 1 6 6v1zm0 0h6v-1a6 6 0 0 0-3-5.197 6 6 0 0 0-6 0M13 7a4 4 0 0 1-4 4 4 4 0 0 1-4-4 4 4 0 0 1 4-4 4 4 0 0 1 4 4z" stroke-width="2"/><path d="M20 2.283c0-.496.281-1.056 1.096-1.239 1.102-.248 1.985.606 1.898 1.487-.123 1.239-1.892 1.239-1.892 1.239l-.006.743m0 1.487h.006" stroke-width="1.5"/></svg>