<svg width="24" height="24" viewBox="0 0 24 24" fill="none" xmlns="http://www.w3.org/2000/svg">
<mask id="path-1-inside-1_20093_142424" fill="white">
<path fill-rule="evenodd" clip-rule="evenodd" d="M22 4C22 2.34315 20.6569 1 19 1H5C3.34315 1 2 2.34315 2 4V20C2 21.6569 3.34314 23 5 23H5.89704C7.42666 23 8.66667 21.76 8.66667 20.2304C8.66667 20.1751 8.71144 20.1304 8.76667 20.1304H15.2333C15.2886 20.1304 15.3333 20.1751 15.3333 20.2304C15.3333 21.76 16.5733 23 18.103 23H19C20.6569 23 22 21.6569 22 20V4Z"/>
</mask>
<path d="M5 3H19V-1H5V3ZM4 20V4H0V20H4ZM5.89704 21H5V25H5.89704V21ZM10.6667 20.2304C10.6667 21.2797 9.81603 22.1304 8.76667 22.1304V18.1304C7.60684 18.1304 6.66667 19.0706 6.66667 20.2304H10.6667ZM8.76667 22.1304H15.2333V18.1304H8.76667V22.1304ZM15.2333 22.1304C14.184 22.1304 13.3333 21.2797 13.3333 20.2304H17.3333C17.3333 19.0706 16.3931 18.1304 15.2333 18.1304V22.1304ZM19 21H18.103V25H19V21ZM20 4V20H24V4H20ZM19 25C21.7614 25 24 22.7614 24 20H20C20 20.5523 19.5523 21 19 21V25ZM13.3333 20.2304C13.3333 22.8646 15.4688 25 18.103 25V21C17.6779 21 17.3333 20.6554 17.3333 20.2304H13.3333ZM5.89704 25C8.53123 25 10.6667 22.8646 10.6667 20.2304H6.66667C6.66667 20.6554 6.32209 21 5.89704 21V25ZM0 20C0 22.7614 2.23857 25 5 25V21C4.44772 21 4 20.5523 4 20H0ZM19 3C19.5523 3 20 3.44771 20 4H24C24 1.23858 21.7614 -1 19 -1V3ZM5 -1C2.23858 -1 0 1.23858 0 4H4C4 3.44772 4.44772 3 5 3V-1Z" fill="#515151" mask="url(#path-1-inside-1_20093_142424)"/>
<line x1="3" y1="12" x2="22" y2="12" stroke="#515151" stroke-width="2"/>
<path d="M15 15.5L18 15.5" stroke="#515151" stroke-width="2" stroke-linecap="round"/>
<path d="M6 15.5L9 15.5" stroke="#515151" stroke-width="2" stroke-linecap="round"/>
<path d="M12 12L12 5" stroke="#515151" stroke-width="2" stroke-linecap="round"/>
<rect x="21" y="6" width="2" height="6" rx="1" fill="#515151"/>
<rect x="1" y="6" width="2" height="6" rx="1" fill="#515151"/>
</svg>
