<svg width="24" height="24" viewBox="0 0 24 24" fill="none" xmlns="http://www.w3.org/2000/svg">
<path d="M5 20V8.00002L22 8V17.2308L19.1667 20H5Z" fill="white"/>
<path d="M7.83333 14V11H11M7.83333 14V17H11M7.83333 14H11M11 14C11 12.3778 11 12.6222 11 11M11 14C11 14.9012 11 16.0988 11 17M11 11H15.5V17H11M5 8.00002V20H19.1667L22 17.2308C22 14.5933 22 10.6441 22 8L5 8.00002Z" stroke="#515151" stroke-width="2" stroke-linecap="round" stroke-linejoin="round"/>
<path d="M4.83333 17H2V5.00002L19 5V7.76923" stroke="#515151" stroke-width="2" stroke-linecap="round" stroke-linejoin="round"/>
</svg>
