<svg width="24" height="24" viewBox="0 0 24 24" fill="none" xmlns="http://www.w3.org/2000/svg">
<path d="M4.63636 11.6667H4C3.44772 11.6667 3 12.1144 3 12.6667V17.3333C3 17.8856 3.44772 18.3333 4 18.3333H5.45455M4.63636 11.6667V6C4.63636 5.44771 5.08408 5 5.63636 5H18.3636C18.9159 5 19.3636 5.44772 19.3636 6V11.6667M4.63636 11.6667H9M19.3636 11.6667H20C20.5523 11.6667 21 12.1144 21 12.6667V17.3333C21 17.8856 20.5523 18.3333 20 18.3333H18.5455M19.3636 11.6667H15M9 11.6667V8.5H15V11.6667M9 11.6667H15M5.45455 18.3333V20M5.45455 18.3333H18.5455M18.5455 18.3333V20" stroke="#515151" stroke-width="2" stroke-linecap="round" stroke-linejoin="round"/>
</svg>
