<svg width="24" height="24" viewBox="0 0 24 24" fill="none" xmlns="http://www.w3.org/2000/svg">
<g id="SolidQuestionMarkCircle">
<circle id="Ellipse 17" cx="12" cy="12" r="12" fill="#ECECEC"/>
<path id="?" d="M12.6108 14.746H10.7783C10.7849 14.1008 10.8407 13.5733 10.9458 13.1633C11.0575 12.7466 11.2381 12.3669 11.4877 12.0242C11.7373 11.6815 12.069 11.2917 12.4828 10.8548C12.7849 10.539 13.0608 10.2433 13.3103 9.96774C13.5665 9.68548 13.7734 9.38306 13.931 9.06048C14.0887 8.73118 14.1675 8.33804 14.1675 7.88105C14.1675 7.41734 14.0854 7.01747 13.9212 6.68145C13.7635 6.34543 13.5271 6.08669 13.2118 5.90524C12.9031 5.72379 12.5189 5.63306 12.0591 5.63306C11.6782 5.63306 11.3169 5.70363 10.9754 5.84476C10.6338 5.98589 10.358 6.2043 10.1478 6.5C9.9376 6.78898 9.82923 7.16868 9.82266 7.63911H8C8.01314 6.8797 8.19704 6.22782 8.55172 5.68347C8.91297 5.13911 9.39901 4.72245 10.0099 4.43347C10.6207 4.14449 11.3038 4 12.0591 4C12.8933 4 13.6026 4.15457 14.1872 4.46371C14.7783 4.77285 15.2282 5.2164 15.5369 5.79435C15.8456 6.36559 16 7.04435 16 7.83065C16 8.43548 15.8785 8.99328 15.6355 9.50403C15.399 10.0081 15.0936 10.4819 14.7192 10.9254C14.3448 11.369 13.9475 11.7923 13.5271 12.1956C13.1658 12.5383 12.9228 12.9247 12.798 13.3548C12.6732 13.7849 12.6108 14.2487 12.6108 14.746ZM10.6995 17.9415C10.6995 17.6391 10.7915 17.3837 10.9754 17.1754C11.1593 16.9671 11.4253 16.8629 11.7734 16.8629C12.1281 16.8629 12.3974 16.9671 12.5813 17.1754C12.7652 17.3837 12.8571 17.6391 12.8571 17.9415C12.8571 18.2305 12.7652 18.4792 12.5813 18.6875C12.3974 18.8958 12.1281 19 11.7734 19C11.4253 19 11.1593 18.8958 10.9754 18.6875C10.7915 18.4792 10.6995 18.2305 10.6995 17.9415Z" fill="#8B8B8B"/>
</g>
</svg>
