<svg width="24" height="24" viewBox="0 0 24 24" fill="none" xmlns="http://www.w3.org/2000/svg">
<path d="M12.9427 13.1111L12.1567 12.2561C10.8878 10.8758 11.0693 8.70592 12.5498 7.55556V7.55556C14.0303 6.40519 14.2118 4.23527 12.9429 2.85497L12.1569 2" stroke="#515151" stroke-width="2" stroke-linecap="round" stroke-linejoin="round"/>
<path d="M7.99271 13.1111L7.20675 12.2561C5.93786 10.8758 6.11933 8.70592 7.59985 7.55556V7.55556C9.08038 6.40519 9.26185 4.23527 7.99296 2.85497L7.207 2" stroke="#515151" stroke-width="2" stroke-linecap="round" stroke-linejoin="round"/>
<path d="M17.3428 13.1111L16.5568 12.2561C15.288 10.8758 15.4694 8.70592 16.95 7.55556V7.55556C18.4305 6.40519 18.6119 4.23527 17.3431 2.85497L16.5571 2" stroke="#515151" stroke-width="2" stroke-linecap="round" stroke-linejoin="round"/>
<path fill-rule="evenodd" clip-rule="evenodd" d="M4.62339 10.9609C3.52082 11.9744 3 13.1227 3 14.2222C3 15.5473 3.7566 16.9435 5.37649 18.0889C6.99133 19.2307 9.32679 19.9999 12 19.9999C14.6732 19.9999 17.0087 19.2307 18.6235 18.0889C20.2434 16.9435 21 15.5473 21 14.2222C21 12.8971 20.2434 11.5008 18.6235 10.3555C18.3278 10.1464 18.0079 9.94978 17.6662 9.76811C17.7955 9.25086 18.1804 8.7201 18.9359 8.18506C21.4157 9.61117 23 11.7859 23 14.2222C23 18.5177 18.0751 21.9999 12 21.9999C5.92487 21.9999 1 18.5177 1 14.2222C1 11.8055 2.55879 9.64627 5.00423 8.21972C4.56943 8.98478 4.46196 9.98109 4.62339 10.9609Z" fill="#515151"/>
</svg>
