<svg width="32" height="32" viewBox="0 0 32 32" fill="none" xmlns="http://www.w3.org/2000/svg">
<path fill-rule="evenodd" clip-rule="evenodd" d="M10.9193 19.4941L11.8027 14.4882L9.83315 14.1406L8.94975 19.1466C8.82701 19.8421 8.49329 20.483 7.99387 20.9825L5.60379 23.3725C4.79841 24.1779 4.79841 25.4837 5.60379 26.2891C6.40918 27.0945 7.71497 27.0945 8.52035 26.2891L10.9104 23.899C11.4099 23.3996 12.0508 23.0659 12.7463 22.9431L17.0258 22.1879C17.1087 21.6573 17.2751 21.1543 17.511 20.6928L17.4047 20.0902L12.3988 20.9736C11.2991 21.1676 10.2858 21.6952 9.49622 22.4848L7.10614 24.8749C7.0818 24.8992 7.04234 24.8992 7.01801 24.8749C6.99367 24.8505 6.99367 24.8111 7.01801 24.7867L9.40809 22.3967C10.1977 21.6071 10.7253 20.5938 10.9193 19.4941Z" fill="#515151"/>
<path fill-rule="evenodd" clip-rule="evenodd" d="M21.6016 17.9789L23.3003 16.2802C25.4233 14.1572 25.4233 10.7152 23.3003 8.59223C21.1774 6.46926 17.7353 6.46926 15.6123 8.59223L13.3588 10.8457C11.2359 12.9687 11.2359 16.4107 13.3588 18.5337C14.5928 19.7677 16.2724 20.2844 17.8796 20.0839C17.4579 20.6807 17.1637 21.374 17.0365 22.1241C15.1892 22.083 13.3543 21.3577 11.9446 19.9479C9.0406 17.0439 9.0406 12.3356 11.9446 9.43153L14.1981 7.17802C17.1022 4.27399 21.8105 4.27399 24.7145 7.17802C27.6186 10.082 27.6186 14.7904 24.7145 17.6944L24.0083 18.4006C23.3848 18.1212 22.6935 17.9658 21.966 17.9658C21.8435 17.9658 21.722 17.9702 21.6016 17.9789Z" fill="#515151"/>
<circle cx="21.9656" cy="22.9658" r="3" stroke="#515151" stroke-width="2"/>
<line x1="14.5322" y1="14.6078" x2="19.482" y2="9.65809" stroke="#515151" stroke-linecap="round"/>
<line x1="17.3606" y1="17.4364" x2="22.3103" y2="12.4867" stroke="#515151" stroke-linecap="round"/>
<line x1="17.3607" y1="9.6582" x2="22.3104" y2="14.608" stroke="#515151" stroke-linecap="round"/>
<line x1="14.5321" y1="12.4863" x2="19.4818" y2="17.4361" stroke="#515151" stroke-linecap="round"/>
</svg>
