<svg width="24" height="24" viewBox="0 0 24 24" fill="none" xmlns="http://www.w3.org/2000/svg">
<path d="M1 16.0837L2.06839 15.1634C3.20662 14.183 4.92826 14.2773 5.97281 15.357V15.357C7.05782 16.4785 8.8693 16.509 9.96999 15.4029V15.4029C11.0599 14.3077 12.8395 14.3147 13.9294 15.4099V15.4099C15.027 16.5129 16.8193 16.52 17.9169 15.417L17.9928 15.3406C19.0714 14.2567 20.8043 14.1906 21.9624 15.1891L23 16.0837" stroke="#515151" stroke-width="2" stroke-linecap="round"/>
<path d="M1 21.0837L2.06839 20.1634C3.20662 19.183 4.92826 19.2773 5.97281 20.357V20.357C7.05782 21.4785 8.8693 21.509 9.96999 20.4029V20.4029C11.0599 19.3077 12.8395 19.3147 13.9294 20.4099V20.4099C15.027 21.5129 16.8193 21.52 17.9169 20.417L17.9928 20.3406C19.0714 19.2567 20.8043 19.1906 21.9624 20.1891L23 21.0837" stroke="#515151" stroke-width="2" stroke-linecap="round"/>
<path d="M11 9.91699C11 10.4693 11.4477 10.917 12 10.917C12.5523 10.917 13 10.4693 13 9.91699H11ZM11 5.41699V9.91699H13V5.41699H11ZM7 15V5.41699H5V15H7ZM9 3.41699C10.1046 3.41699 11 4.31242 11 5.41699H13C13 3.20785 11.2091 1.41699 9 1.41699V3.41699ZM9 1.41699C6.79086 1.41699 5 3.20785 5 5.41699H7C7 4.31242 7.89543 3.41699 9 3.41699V1.41699Z" fill="#515151"/>
<path fill-rule="evenodd" clip-rule="evenodd" d="M11.6793 4.06596C11.5629 4.42581 11.5 4.80973 11.5 5.20833V7.91667C11.5 8.28681 11.7011 8.60998 12 8.78288V5.41699C12 4.931 11.8844 4.47199 11.6793 4.06596ZM13.8454 4.17826C14.1573 3.76621 14.6517 3.5 15.2083 3.5C16.1518 3.5 16.9167 4.26485 16.9167 5.20833V9.91699C16.9167 10.4693 17.3644 10.917 17.9167 10.917C18.469 10.917 18.9167 10.4693 18.9167 9.91699V5.20833C18.9167 3.16028 17.2564 1.5 15.2083 1.5C14.3397 1.5 13.5409 1.79864 12.9088 2.29884C13.3441 2.84381 13.6679 3.48182 13.8454 4.17826Z" fill="#515151"/>
<line x1="12" y1="6.41699" x2="18" y2="6.41699" stroke="#515151" stroke-width="2"/>
</svg>
