<svg width="24" height="24" viewBox="0 0 24 24" fill="none" xmlns="http://www.w3.org/2000/svg">
<line x1="3.00875" y1="11.7587" x2="2.00883" y2="11.7674" stroke="#515151" stroke-width="2" stroke-linecap="round"/>
<line x1="8.11108" y1="20.665" x2="8.11108" y2="21.9984" stroke="#515151" stroke-width="2" stroke-linecap="round"/>
<line x1="15.8887" y1="20.665" x2="15.8887" y2="21.9984" stroke="#515151" stroke-width="2" stroke-linecap="round"/>
<path d="M3.22217 10.4429C3.22217 8.78602 4.56531 7.44287 6.22217 7.44287H17.9999C19.6568 7.44287 20.9999 8.78602 20.9999 10.4429V17.6651C20.9999 18.7697 20.1045 19.6651 18.9999 19.6651H5.22217C4.1176 19.6651 3.22217 18.7697 3.22217 17.6651V10.4429Z" stroke="#515151" stroke-width="2"/>
<path fill-rule="evenodd" clip-rule="evenodd" d="M7.1701 1.75C5.6647 1.75 4.44434 2.97037 4.44434 4.47577C4.44434 5.41064 4.91469 6.23406 5.62992 6.72472C5.67876 6.89191 5.7504 7.04938 5.84125 7.19351C5.96661 7.18167 6.09366 7.17562 6.22211 7.17562H17.9999C18.1283 7.17562 18.2554 7.18168 18.3807 7.19352C18.4716 7.04938 18.5432 6.89192 18.5921 6.72472C19.3073 6.23406 19.7777 5.41064 19.7777 4.47577C19.7777 2.97037 18.5573 1.75 17.0519 1.75H7.1701ZM6.44434 4.47577C6.44434 4.07494 6.76927 3.75 7.1701 3.75H17.0519C17.4527 3.75 17.7777 4.07494 17.7777 4.47577C17.7777 4.78507 17.5837 5.05159 17.3074 5.15556L16.5679 5.43386L16.6481 6.06439H7.57391L7.65415 5.43386L6.91459 5.15556C6.63827 5.05159 6.44434 4.78507 6.44434 4.47577Z" fill="#515151"/>
<circle cx="17.6668" cy="16.3318" r="1.11111" fill="#515151"/>
</svg>
