<svg width="24" height="24" viewBox="0 0 24 24" fill="none" xmlns="http://www.w3.org/2000/svg">
<path d="M13 8C13 9.1819 12.7413 10.3522 12.2388 11.4442C11.7362 12.5361 10.9997 13.5282 10.0711 14.364C9.14248 15.1997 8.04009 15.8626 6.82683 16.3149C5.61358 16.7672 4.31322 17 3 17" stroke="#515151" stroke-width="2" stroke-linecap="round" stroke-linejoin="round"/>
<path d="M17 22C17 21.0807 16.8189 20.1705 16.4672 19.3212C16.1154 18.4719 15.5998 17.7003 14.9497 17.0503C14.2997 16.4002 13.5281 15.8846 12.6788 15.5328C11.8295 15.1811 10.9193 15 10 15" stroke="#515151" stroke-width="2" stroke-linecap="round" stroke-linejoin="round"/>
<path d="M20 14C18.1435 14 16.363 13.3679 15.0503 12.2426C13.7375 11.1174 13 9.5913 13 8" stroke="#515151" stroke-width="2" stroke-linecap="round" stroke-linejoin="round"/>
<circle cx="15" cy="4" r="2" stroke="#515151" stroke-width="2"/>
<path d="M10 8C10 10 8.5 12 7 12.5" stroke="#515151" stroke-width="2" stroke-linecap="round"/>
</svg>
