<svg width="24" height="24" viewBox="0 0 24 24" fill="none" xmlns="http://www.w3.org/2000/svg">
<rect x="4" y="2" width="16" height="19" rx="2" stroke="#515151" stroke-width="2" stroke-linejoin="round"/>
<path d="M4 4C4 2.89543 4.89543 2 6 2H12V14H4V4Z" stroke="#515151" stroke-width="2" stroke-linejoin="round"/>
<path d="M4 14H20V19C20 20.1046 19.1046 21 18 21H6C4.89543 21 4 20.1046 4 19V14Z" stroke="#515151" stroke-width="2" stroke-linejoin="round"/>
<path d="M12 2H18C19.1046 2 20 2.89543 20 4V14H12V2Z" stroke="#515151" stroke-width="2" stroke-linejoin="round"/>
<circle cx="9" cy="8" r="1" fill="#515151"/>
<circle cx="15" cy="8" r="1" fill="#515151"/>
<circle cx="12" cy="17" r="1" fill="#515151"/>
<line x1="7" y1="22" x2="7" y2="23" stroke="#515151" stroke-width="2" stroke-linecap="round"/>
<line x1="17" y1="22" x2="17" y2="23" stroke="#515151" stroke-width="2" stroke-linecap="round"/>
</svg>
