<svg width="24" height="24" viewBox="0 0 24 24" fill="none" xmlns="http://www.w3.org/2000/svg">
<rect x="4" y="6" width="6" height="13" stroke="#515151" stroke-width="2"/>
<path d="M4 20C4 21.1046 4.89543 22 6 22H18C19.1046 22 20 21.1046 20 20V19H4V20Z" stroke="#515151" stroke-width="2" stroke-linejoin="round"/>
<path d="M4 6H20V4C20 2.89543 19.1046 2 18 2H6C4.89543 2 4 2.89543 4 4V6Z" stroke="#515151" stroke-width="2"/>
<rect x="15" y="6" width="2" height="1" stroke="#515151" stroke-width="2"/>
<path d="M18 13.8827C18 15.1821 17.2274 16 16 16C14.7726 16 14 15.1821 14 13.8827C14 12.4884 15.4338 10.6061 15.8735 10.0617C15.8891 10.0423 15.9085 10.0268 15.9304 10.0162C15.9522 10.0055 15.976 10 16.0001 10C16.0241 10 16.0479 10.0055 16.0698 10.0162C16.0916 10.0268 16.111 10.0423 16.1267 10.0617C16.5663 10.6061 18 12.4884 18 13.8827Z" stroke="#515151" stroke-width="2" stroke-miterlimit="10"/>
</svg>
