<svg width="24" height="24" viewBox="0 0 24 24" fill="none" xmlns="http://www.w3.org/2000/svg">
<path d="M13.5 16.2615C13.5 17.3529 12.8239 18.04 11.75 18.04C10.6761 18.04 10 17.3529 10 16.2615C10 15.0903 11.2545 13.5092 11.6393 13.0518C11.653 13.0356 11.67 13.0225 11.6891 13.0136C11.7082 13.0046 11.729 13 11.7501 13C11.7711 13 11.7919 13.0046 11.811 13.0136C11.8302 13.0225 11.8471 13.0356 11.8608 13.0518C12.2455 13.5092 13.5 15.0903 13.5 16.2615Z" stroke="#515151" stroke-width="2" stroke-miterlimit="10"/>
<rect x="4.5" y="2" width="15" height="19" rx="2" stroke="#515151" stroke-width="2"/>
<path d="M9 6H15V8C15 9.10457 14.1046 10 13 10H11C9.89543 10 9 9.10457 9 8V6Z" stroke="#515151" stroke-width="2"/>
<line x1="4.5" y1="6" x2="19.5" y2="6" stroke="#515151" stroke-width="2"/>
<line x1="3" y1="21" x2="21" y2="21" stroke="#515151" stroke-width="2" stroke-linecap="round"/>
</svg>
